<svg width="250" height="76" viewBox="0 0 250 76" fill="none" xmlns="http://www.w3.org/2000/svg">
<g clip-path="url(#clip0)">
<path d="M250 8.1969C240.982 8.1969 240.982 17.7825 231.964 17.7825C222.946 17.7825 223.322 13.76 213.928 13.76C204.535 13.76 205.286 25.5708 195.893 25.5708C186.499 25.5708 188.002 20.8293 177.857 20.8293C167.712 20.8293 170.342 32.3492 159.821 32.3492C149.3 32.3492 150.803 15.3861 141.785 15.3861C132.767 15.3861 133.519 27.7618 123.749 27.7618C113.98 27.7618 115.483 24.3726 105.713 24.3726C95.9441 24.3726 97.447 32.8456 87.6776 32.8456C77.9082 32.8456 79.0355 36.9537 69.6418 36.9537C60.2482 36.9537 60.9997 27.7104 51.606 27.7104C42.2124 27.7104 43.3396 37.4329 33.5702 37.4329C23.8008 37.4329 26.0553 31.5618 15.5344 31.5618C5.01348 31.5618 6.89221 25.023 -2.50144 25.023C-11.8951 25.023 -10.7679 39.9492 -20.5373 39.9492C-30.3067 39.9492 -28.8037 18.6383 -38.5731 18.6383C-48.3425 18.6383 -47.2152 31.3735 -56.6089 31.3735C-66.0025 31.3735 -64.1238 38.9906 -74.6447 38.9906C-85.1656 38.9906 -82.5354 34.369 -92.6805 34.369C-102.826 34.369 -100.195 43.7834 -110.716 43.7834C-121.237 43.7834 -118.607 40.1546 -128.752 40.1546C-138.897 40.1546 -137.019 34.66 -146.788 34.66C-156.557 34.66 -155.054 54.396 -164.824 54.396C-174.593 54.396 -172.339 49.569 -182.86 49.569C-193.381 49.569 -191.878 57.1176 -200.895 57.1176C-209.913 57.1176 -208.786 51.7257 -218.931 51.7257C-229.076 51.7257 -227.573 67.3023 -236.967 67.3023C-246.361 67.3023 -244.482 62.6122 -255.003 62.6122C-265.524 62.6122 -262.894 59.2059 -273.039 59.2059C-283.184 59.2059 -281.305 69.6474 -291.075 69.6474C-300.844 69.6474 -298.589 71.8384 -309.11 71.8384C-319.631 71.8384 -316.625 66.0699 -327.146 66.0699C-337.667 66.0699 -336.164 62.9888 -345.182 62.9888C-354.2 62.9888 -354.2 73.0023 -363.218 73.0023C-372.236 73.0023 -371.484 69.4762 -381.254 69.4762" stroke="white" stroke-width="0.751492"/>
</g>
<rect x="0.375746" y="-0.375746" width="6.75149" height="6.75149" rx="3.37575" transform="matrix(-1 0 0 1 235.74 14.9565)" fill="white" stroke="white" stroke-width="0.751492"/>
<rect x="0.375746" y="-0.375746" width="6.75149" height="6.75149" rx="3.37575" transform="matrix(-1 0 0 1 217.704 10.9191)" fill="white" stroke="white" stroke-width="0.751492"/>
<rect x="0.375746" y="-0.375746" width="6.75149" height="6.75149" rx="3.37575" transform="matrix(-1 0 0 1 199.668 22.794)" fill="white" stroke="white" stroke-width="0.751492"/>
<rect x="0.375746" y="-0.375746" width="6.75149" height="6.75149" rx="3.37575" transform="matrix(-1 0 0 1 181.632 18.044)" fill="white" stroke="white" stroke-width="0.751492"/>
<rect x="0.375746" y="-0.375746" width="6.75149" height="6.75149" rx="3.37575" transform="matrix(-1 0 0 1 145.56 12.5815)" fill="white" stroke="white" stroke-width="0.751492"/>
<rect x="0.375746" y="-0.375746" width="6.75149" height="6.75149" rx="3.37575" transform="matrix(-1 0 0 1 127.525 25.169)" fill="white" stroke="white" stroke-width="0.751492"/>
<rect x="0.375746" y="-0.375746" width="6.75149" height="6.75149" rx="3.37575" transform="matrix(-1 0 0 1 109.489 21.8441)" fill="white" stroke="white" stroke-width="0.751492"/>
<rect x="0.375746" y="-0.375746" width="6.75149" height="6.75149" rx="3.37575" transform="matrix(-1 0 0 1 91.453 30.1566)" fill="white" stroke="white" stroke-width="0.751492"/>
<rect x="0.375746" y="-0.375746" width="6.75149" height="6.75149" rx="3.37575" transform="matrix(-1 0 0 1 163.596 29.6815)" fill="white" stroke="white" stroke-width="0.751492"/>
<rect x="0.375746" y="-0.375746" width="6.75149" height="6.75149" rx="3.37575" transform="matrix(-1 0 0 1 55.3813 24.9315)" fill="white" stroke="white" stroke-width="0.751492"/>
<rect x="0.375746" y="-0.375746" width="6.75149" height="6.75149" rx="3.37575" transform="matrix(-1 0 0 1 37.3455 34.669)" fill="white" stroke="white" stroke-width="0.751492"/>
<rect x="0.375746" y="-0.375746" width="6.75149" height="6.75149" rx="3.37575" transform="matrix(-1 0 0 1 19.3098 28.9691)" fill="white" stroke="white" stroke-width="0.751492"/>
<rect x="0.375746" y="-0.375746" width="6.75149" height="6.75149" rx="3.37575" transform="matrix(-1 0 0 1 73.4172 34.4315)" fill="white" stroke="white" stroke-width="0.751492"/>
<defs>
<clipPath id="clip0">
<rect width="250" height="67.6875" fill="white" transform="matrix(-1 0 0 1 250 8.16528)"/>
</clipPath>
</defs>
</svg>
